<?xml version="1.0" encoding="iso-8859-1"?>
<!-- Generator: Adobe Illustrator 24.3.0, SVG Export Plug-In . SVG Version: 6.00 Build 0)  -->
<svg version="1.1" id="Layer_1" xmlns="http://www.w3.org/2000/svg" xmlns:xlink="http://www.w3.org/1999/xlink" x="0px" y="0px"
	 viewBox="0 0 1300.452 270.714" style="enable-background:new 0 0 1300.452 270.714;" xml:space="preserve">
<g>
	<g>
		<path style="fill:#24262B;" d="M143.412,229.007H0V0h143.412v41.99H44.574v52.326h89.471v39.729H44.574v52.972h98.838V229.007z"/>
	</g>
	<g>
		<path style="fill:#24262B;" d="M639.848,170.779l36.297,10.791c-4.363,14.827-12.916,27.034-25.669,36.624
			c-12.753,9.59-28.612,14.388-47.579,14.388c-23.109,0-42.729-7.792-58.86-23.381c-16.135-15.583-24.198-36.46-24.198-62.62
			c0-24.852,7.848-45.177,23.544-60.986c15.696-15.803,34.223-23.708,55.59-23.708c24.852,0,44.309,7.414,58.37,22.236
			c14.061,14.827,21.091,35.209,21.091,61.149c0,1.748-0.056,3.709-0.163,5.886c-0.113,2.182-0.164,3.924-0.164,5.232l-0.327,2.289
			H562.676c0.435,10.464,4.578,19.186,12.426,26.16c7.848,6.979,17.219,10.464,28.122,10.464
			C621.751,195.304,633.963,187.129,639.848,170.779z M563.657,128.923h71.94c-0.439-8.936-3.653-16.457-9.646-22.563
			c-5.998-6.101-14.771-9.156-26.323-9.156c-10.464,0-18.966,3.27-25.506,9.81C567.582,113.554,564.091,120.86,563.657,128.923z"/>
		<path style="fill:#24262B;" d="M810.867,66.139v43.818c-4.363-0.869-8.722-1.308-13.08-1.308
			c-12.426,0-22.456,3.546-30.084,10.628c-7.634,7.087-11.445,18.695-11.445,34.825v73.575h-43.491V66.793h42.183v23.871
			c7.848-16.784,23.105-25.179,45.78-25.179C803.127,65.485,806.504,65.705,810.867,66.139z"/>
		<path style="fill:#24262B;" d="M901.44,18.724v48.069h32.373v38.586H901.44v57.362c0,6.76,1.523,11.557,4.578,14.388
			c3.05,2.836,7.848,4.251,14.388,4.251c5.886,0,10.352-0.434,13.407-1.308l-24.525,49.894l-51.012-1.704V105.379h-29.103V66.793
			h8.175c8.063,0,14.225-2.34,18.476-7.031c4.251-4.685,6.377-10.842,6.377-18.475V18.724H901.44z"/>
	</g>
	<polygon style="fill:#24262B;" points="1293.823,229.966 938.766,229.966 976.766,150.803 1293.823,150.803 	"/>
	<g>
		<path style="fill:#FFFFFF;" d="M1002.605,219.214h-18.017v-56.101h18.089c7.358,0,13.353,2.506,17.982,7.517
			c4.629,5.012,6.943,11.869,6.943,20.573c0,8.652-2.327,15.483-6.979,20.494C1015.969,216.709,1009.964,219.214,1002.605,219.214z
			 M994.415,209.086h7.834c4.415,0,8.047-1.529,10.896-4.589c2.849-3.059,4.273-7.49,4.273-13.293
			c0-5.802-1.424-10.247-4.273-13.333c-2.849-3.086-6.457-4.629-10.825-4.629h-7.905V209.086z"/>
		<path style="fill:#FFFFFF;" d="M1107.821,219.214h-31.619v-56.101h31.619v10.286h-21.792v12.819h19.726v9.733h-19.726v12.977
			h21.792V219.214z"/>
		<path style="fill:#FFFFFF;" d="M1178.106,204.813l13.175-41.7h10.397l-18.73,56.101h-10.112l-18.658-56.101h10.754
			L1178.106,204.813z"/>
		<path style="fill:#FFFFFF;" d="M1282.289,176.485l-8.831,3.007c-0.333-2.004-1.235-3.824-2.706-5.46
			c-1.472-1.634-3.632-2.453-6.481-2.453c-2.327,0-4.226,0.7-5.697,2.097c-1.472,1.398-2.208,3.074-2.208,5.025
			c0,3.43,1.827,5.539,5.483,6.33l7.05,1.503c4.462,0.95,7.928,2.928,10.397,5.935c2.468,3.007,3.703,6.542,3.703,10.603
			c0,4.643-1.65,8.692-4.949,12.146c-3.3,3.456-7.727,5.183-13.282,5.183c-3.181,0-6.053-0.528-8.617-1.583
			c-2.564-1.055-4.629-2.465-6.196-4.233c-1.567-1.767-2.79-3.64-3.667-5.618c-0.879-1.978-1.413-4.022-1.602-6.132l9.116-2.69
			c0.237,3.007,1.293,5.513,3.169,7.517c1.875,2.006,4.498,3.007,7.869,3.007c2.564,0,4.569-0.633,6.018-1.899
			c1.448-1.266,2.172-2.928,2.172-4.985c0-1.634-0.534-3.046-1.602-4.233c-1.068-1.187-2.576-1.991-4.522-2.413l-7.05-1.583
			c-4.084-0.95-7.312-2.821-9.685-5.618c-2.375-2.796-3.561-6.277-3.561-10.445c0-4.958,1.72-9.126,5.163-12.502
			c3.442-3.375,7.584-5.064,12.427-5.064c2.895,0,5.483,0.449,7.762,1.345c2.279,0.898,4.106,2.097,5.484,3.6
			c1.376,1.503,2.445,3.047,3.205,4.629C1281.41,173.083,1281.956,174.744,1282.289,176.485z"/>
	</g>
	<g>
		<path style="fill:#24262B;" d="M968.033,90.979c0-8.136,2.689-14.656,8.074-19.565c5.382-4.906,12.339-8.006,20.875-9.298
			l23.829-3.487c4.856-0.645,7.287-2.906,7.287-6.78c0-3.614-1.412-6.586-4.234-8.911c-2.824-2.325-6.862-3.487-12.111-3.487
			c-5.514,0-9.88,1.486-13.096,4.455c-3.219,2.972-5.022,6.653-5.416,11.042l-23.238-4.843c0.917-8.263,5.052-15.561,12.407-21.89
			c7.351-6.326,17.065-9.492,29.146-9.492c14.44,0,25.075,3.39,31.903,10.17c6.825,6.78,10.24,15.467,10.24,26.054v46.879
			c0,5.684,0.394,10.721,1.182,15.11h-24.025c-0.659-2.839-0.985-6.65-0.985-11.429c-6.172,9.429-15.69,14.141-28.555,14.141
			c-9.979,0-18.019-2.839-24.124-8.523C971.086,105.444,968.033,98.728,968.033,90.979z M1006.829,100.471
			c6.17,0,11.256-1.71,15.262-5.134c4.003-3.42,6.007-9.071,6.007-16.95v-4.262l-21.859,3.293
			c-8.01,1.162-12.013,5.167-12.013,12.01c0,3.099,1.114,5.714,3.348,7.845C999.804,99.405,1002.89,100.471,1006.829,100.471z"/>
		<path style="fill:#24262B;" d="M1106.277,133.742h-26.192V21.63h25.405v11.623c2.363-3.874,6.169-7.134,11.422-9.782
			c5.249-2.645,11.354-3.971,18.315-3.971c13.785,0,24.681,4.619,32.691,13.85c8.006,9.235,12.013,21.148,12.013,35.74
			c0,14.595-4.234,26.605-12.702,36.031c-8.469,9.428-19.466,14.141-32.986,14.141c-12.868,0-22.189-3.874-27.965-11.623V133.742z
			 M1147.337,88.945c4.529-4.843,6.794-11.396,6.794-19.662c0-8.263-2.265-14.786-6.794-19.565
			c-4.529-4.776-10.274-7.168-17.231-7.168c-6.96,0-12.736,2.422-17.33,7.265c-4.597,4.843-6.893,11.332-6.893,19.468
			s2.296,14.659,6.893,19.565c4.594,4.91,10.37,7.361,17.33,7.361C1137.063,96.209,1142.808,93.788,1147.337,88.945z"/>
		<path style="fill:#24262B;" d="M1226.799,133.742h-26.192V21.63h25.404v11.623c2.363-3.874,6.169-7.134,11.422-9.782
			c5.249-2.645,11.355-3.971,18.315-3.971c13.785,0,24.681,4.619,32.691,13.85c8.006,9.235,12.013,21.148,12.013,35.74
			c0,14.595-4.234,26.605-12.702,36.031c-8.468,9.428-19.466,14.141-32.986,14.141c-12.868,0-22.189-3.874-27.965-11.623V133.742z
			 M1267.859,88.945c4.529-4.843,6.794-11.396,6.794-19.662c0-8.263-2.265-14.786-6.794-19.565
			c-4.529-4.776-10.274-7.168-17.231-7.168c-6.96,0-12.736,2.422-17.33,7.265c-4.597,4.843-6.893,11.332-6.893,19.468
			s2.295,14.659,6.893,19.565c4.594,4.91,10.37,7.361,17.33,7.361C1257.585,96.209,1263.33,93.788,1267.859,88.945z"/>
	</g>
	<g>
		<g>
			<path style="fill:#25346E;" d="M165.359,114.984v-47.56l57.31,40.051c0,0,10.124,7.005,10.124,18.69v43.722
				c0,0-1.325-7.136-7.947-13.361c-1.025-0.963-4.661-3.581-5.598-4.181c-1.779-1.14-3.934-2.5-3.934-2.5L165.359,114.984z"/>
			<path style="fill:#29C1D9;" d="M165.359,180.752v47.56l57.31-40.051c0,0,10.124-4.839,10.124-18.69v-43.722
				c0,0-1.325,7.136-7.947,13.361c-1.025,0.963-4.661,3.581-5.598,4.181c-1.779,1.14-3.934,2.5-3.934,2.5L165.359,180.752z"/>
		</g>
		<g>
			<path style="fill:#25346E;" d="M308.123,181.447l0,47.56l-57.31-40.051c0,0-10.033-6.391-10.124-18.69l0-43.722
				c0,0,1.325,7.136,7.947,13.361c1.025,0.963,4.661,3.581,5.598,4.181c1.779,1.14,3.934,2.5,3.934,2.5L308.123,181.447z"/>
			<path style="fill:#29C1D9;" d="M308.123,115.679l0-47.56l-57.31,40.05c0,0-10.124,4.839-10.124,18.69l0,43.722
				c0,0,1.325-7.136,7.947-13.361c1.025-0.963,4.661-3.581,5.598-4.181c1.779-1.14,3.934-2.5,3.934-2.5L308.123,115.679z"/>
		</g>
	</g>
	<path style="fill:#24262B;" d="M375.305,270.714v-58.733c9.591,13.08,25.067,19.62,46.435,19.62
		c22.45,0,40.711-7.956,54.772-23.871c14.061-15.911,21.091-36.185,21.091-60.822c0-24.633-6.653-44.743-19.947-60.332
		c-13.3-15.583-31.393-23.38-54.282-23.38c-11.558,0-21.694,2.237-30.411,6.703c-8.722,4.471-15.042,9.974-18.966,16.514v-19.62
		h-42.183v173.699L375.305,270.714z M386.096,114.371c7.628-8.175,17.219-12.262,28.776-12.262c11.552,0,21.091,4.036,28.612,12.099
		c7.521,8.067,11.281,19.078,11.281,33.027c0,13.953-3.76,25.015-11.281,33.19c-7.521,8.175-17.06,12.262-28.612,12.262
		c-11.558,0-21.148-4.139-28.776-12.426c-7.633-8.282-11.445-19.293-11.445-33.026C374.652,133.501,378.463,122.546,386.096,114.371
		z"/>
</g>
<g>
</g>
<g>
</g>
<g>
</g>
<g>
</g>
<g>
</g>
<g>
</g>
</svg>
