<?xml version="1.0" encoding="utf-8"?>
<!-- Generator: Adobe Illustrator 24.3.0, SVG Export Plug-In . SVG Version: 6.00 Build 0)  -->
<svg version="1.1" id="Layer_1" xmlns="http://www.w3.org/2000/svg" xmlns:xlink="http://www.w3.org/1999/xlink" x="0px" y="0px"
	 viewBox="0 0 1300.5 270.7" style="enable-background:new 0 0 1300.5 270.7;" xml:space="preserve">
<style type="text/css">
	.st0{fill:#FFFFFF;}
	.st1{fill:#27A2AF;}
	.st2{fill:#29C1D9;}
</style>
<g>
	<path class="st0" d="M143.4,229H0V0h143.4v42H44.6v52.3H134V134H44.6v53h98.8V229z"/>
</g>
<g>
	<path class="st0" d="M639.8,170.8l36.3,10.8c-4.4,14.8-12.9,27-25.7,36.6s-28.6,14.4-47.6,14.4c-23.1,0-42.7-7.8-58.9-23.4
		c-16.1-15.6-24.2-36.5-24.2-62.6c0-24.9,7.8-45.2,23.5-61s34.2-23.7,55.6-23.7c24.9,0,44.3,7.4,58.4,22.2
		c14.1,14.8,21.1,35.2,21.1,61.1c0,1.7-0.1,3.7-0.2,5.9c-0.1,2.2-0.2,3.9-0.2,5.2l-0.3,2.3H562.7c0.4,10.5,4.6,19.2,12.4,26.2
		c7.8,7,17.2,10.5,28.1,10.5C621.8,195.3,634,187.1,639.8,170.8z M563.7,128.9h71.9c-0.4-8.9-3.7-16.5-9.6-22.6
		c-6-6.1-14.8-9.2-26.3-9.2c-10.5,0-19,3.3-25.5,9.8C567.6,113.6,564.1,120.9,563.7,128.9z"/>
	<path class="st0" d="M810.9,66.1V110c-4.4-0.9-8.7-1.3-13.1-1.3c-12.4,0-22.5,3.5-30.1,10.6s-11.4,18.7-11.4,34.8v73.6h-43.5V66.8
		H755v23.9c7.8-16.8,23.1-25.2,45.8-25.2C803.1,65.5,806.5,65.7,810.9,66.1z"/>
	<path class="st0" d="M901.4,18.7v48.1h32.4v38.6h-32.4v57.4c0,6.8,1.5,11.6,4.6,14.4c3,2.8,7.8,4.3,14.4,4.3
		c5.9,0,10.4-0.4,13.4-1.3L909.3,230l-51-1.7V105.4h-29.1V66.8h8.2c8.1,0,14.2-2.3,18.5-7s6.4-10.8,6.4-18.5V18.7H901.4z"/>
</g>
<g>
	<path class="st0" d="M1002.3,173.2h-7.9V209h7.8c4.4,0,8-1.5,10.9-4.6c2.8-3.1,4.3-7.5,4.3-13.3s-1.4-10.2-4.3-13.3
		C1010.3,174.8,1006.7,173.2,1002.3,173.2z"/>
	<path class="st0" d="M976.8,150.8l-38,79.2h355.1v-79.2H976.8L976.8,150.8z M1020.6,211.7c-4.7,5-10.7,7.5-18,7.5h-18v-56.1h18.1
		c7.4,0,13.4,2.5,18,7.5s6.9,11.9,6.9,20.6C1027.6,199.9,1025.3,206.7,1020.6,211.7z M1107.8,173.4H1086v12.8h19.7v9.7H1086v13h21.8
		v10.3h-31.6v-56.1h31.6V173.4z M1182.9,219.2h-10.1l-18.7-56.1h10.8l13.2,41.7l13.2-41.7h10.4L1182.9,219.2z M1278.1,215.2
		c-3.3,3.5-7.7,5.2-13.3,5.2c-3.2,0-6.1-0.5-8.6-1.6s-4.6-2.5-6.2-4.2c-1.6-1.8-2.8-3.6-3.7-5.6c-0.9-2-1.4-4-1.6-6.1l9.1-2.7
		c0.2,3,1.3,5.5,3.2,7.5c1.9,2,4.5,3,7.9,3c2.6,0,4.6-0.6,6-1.9c1.4-1.3,2.2-2.9,2.2-5c0-1.6-0.5-3-1.6-4.2s-2.6-2-4.5-2.4l-7.1-1.6
		c-4.1-0.9-7.3-2.8-9.7-5.6c-2.4-2.8-3.6-6.3-3.6-10.4c0-5,1.7-9.1,5.2-12.5c3.4-3.4,7.6-5.1,12.4-5.1c2.9,0,5.5,0.4,7.8,1.3
		c2.3,0.9,4.1,2.1,5.5,3.6s2.4,3,3.2,4.6c0.8,1.6,1.3,3.2,1.6,5l-8.8,3c-0.3-2-1.2-3.8-2.7-5.5c-1.5-1.6-3.6-2.5-6.5-2.5
		c-2.3,0-4.2,0.7-5.7,2.1c-1.5,1.4-2.2,3.1-2.2,5c0,3.4,1.8,5.5,5.5,6.3l7.1,1.5c4.5,0.9,7.9,2.9,10.4,5.9s3.7,6.5,3.7,10.6
		C1283,207.7,1281.4,211.8,1278.1,215.2z"/>
</g>
<g>
	<path class="st0" d="M968,91c0-8.1,2.7-14.7,8.1-19.6c5.4-4.9,12.3-8,20.9-9.3l23.8-3.5c4.9-0.6,7.3-2.9,7.3-6.8
		c0-3.6-1.4-6.6-4.2-8.9c-2.8-2.3-6.9-3.5-12.1-3.5c-5.5,0-9.9,1.5-13.1,4.5c-3.2,3-5,6.7-5.4,11L970,50.1
		c0.9-8.3,5.1-15.6,12.4-21.9c7.4-6.3,17.1-9.5,29.1-9.5c14.4,0,25.1,3.4,31.9,10.2s10.2,15.5,10.2,26.1v46.9
		c0,5.7,0.4,10.7,1.2,15.1h-24c-0.7-2.8-1-6.7-1-11.4c-6.2,9.4-15.7,14.1-28.6,14.1c-10,0-18-2.8-24.1-8.5
		C971.1,105.4,968,98.7,968,91z M1006.8,100.5c6.2,0,11.3-1.7,15.3-5.1s6-9.1,6-17v-4.3l-21.9,3.3c-8,1.2-12,5.2-12,12
		c0,3.1,1.1,5.7,3.3,7.8C999.8,99.4,1002.9,100.5,1006.8,100.5z"/>
	<path class="st0" d="M1106.3,133.7h-26.2V21.6h25.4v11.6c2.4-3.9,6.2-7.1,11.4-9.8c5.2-2.6,11.4-4,18.3-4
		c13.8,0,24.7,4.6,32.7,13.9c8,9.2,12,21.1,12,35.7s-4.2,26.6-12.7,36s-19.5,14.1-33,14.1c-12.9,0-22.2-3.9-28-11.6L1106.3,133.7
		L1106.3,133.7z M1147.3,88.9c4.5-4.8,6.8-11.4,6.8-19.7s-2.3-14.8-6.8-19.6s-10.3-7.2-17.2-7.2c-7,0-12.7,2.4-17.3,7.3
		c-4.6,4.8-6.9,11.3-6.9,19.5s2.3,14.7,6.9,19.6s10.4,7.4,17.3,7.4C1137.1,96.2,1142.8,93.8,1147.3,88.9z"/>
	<path class="st0" d="M1226.8,133.7h-26.2V21.6h25.4v11.6c2.4-3.9,6.2-7.1,11.4-9.8c5.2-2.6,11.4-4,18.3-4
		c13.8,0,24.7,4.6,32.7,13.9c8,9.2,12,21.1,12,35.7s-4.2,26.6-12.7,36s-19.5,14.1-33,14.1c-12.9,0-22.2-3.9-28-11.6L1226.8,133.7
		L1226.8,133.7z M1267.9,88.9c4.5-4.8,6.8-11.4,6.8-19.7s-2.3-14.8-6.8-19.6s-10.3-7.2-17.2-7.2c-7,0-12.7,2.4-17.3,7.3
		c-4.6,4.8-6.9,11.3-6.9,19.5s2.3,14.7,6.9,19.6s10.4,7.4,17.3,7.4C1257.6,96.2,1263.3,93.8,1267.9,88.9z"/>
</g>
<g>
	<g>
		<path class="st1" d="M165.4,115V67.4l57.3,40.1c0,0,10.1,7,10.1,18.7v43.7c0,0-1.3-7.1-7.9-13.4c-1-1-4.7-3.6-5.6-4.2
			c-1.8-1.1-3.9-2.5-3.9-2.5L165.4,115z"/>
		<path class="st2" d="M165.4,180.8v47.6l57.3-40.1c0,0,10.1-4.8,10.1-18.7v-43.7c0,0-1.3,7.1-7.9,13.4c-1,1-4.7,3.6-5.6,4.2
			c-1.8,1.1-3.9,2.5-3.9,2.5L165.4,180.8z"/>
	</g>
	<g>
		<path class="st1" d="M308.1,181.4V229l-57.3-40c0,0-10-6.4-10.1-18.7v-43.7c0,0,1.3,7.1,7.9,13.4c1,1,4.7,3.6,5.6,4.2
			c1.8,1.1,3.9,2.5,3.9,2.5L308.1,181.4z"/>
		<path class="st2" d="M308.1,115.7V68.1l-57.3,40.1c0,0-10.1,4.8-10.1,18.7v43.7c0,0,1.3-7.1,7.9-13.4c1-1,4.7-3.6,5.6-4.2
			c1.8-1.1,3.9-2.5,3.9-2.5L308.1,115.7z"/>
	</g>
</g>
<path class="st0" d="M375.3,270.7V212c9.6,13.1,25.1,19.6,46.4,19.6c22.5,0,40.7-8,54.8-23.9c14.1-15.9,21.1-36.2,21.1-60.8
	s-6.7-44.7-19.9-60.3c-13.3-15.6-31.4-23.4-54.3-23.4c-11.6,0-21.7,2.2-30.4,6.7c-8.7,4.5-15,10-19,16.5V66.8h-42.2v173.7
	L375.3,270.7z M386.1,114.4c7.6-8.2,17.2-12.3,28.8-12.3c11.6,0,21.1,4,28.6,12.1s11.3,19.1,11.3,33c0,14-3.8,25-11.3,33.2
	s-17.1,12.3-28.6,12.3c-11.6,0-21.1-4.1-28.8-12.4c-7.6-8.3-11.4-19.3-11.4-33C374.7,133.5,378.5,122.5,386.1,114.4z"/>
</svg>
