<?xml version="1.0" encoding="utf-8"?>
<!-- Generator: Adobe Illustrator 16.0.0, SVG Export Plug-In . SVG Version: 6.00 Build 0)  -->
<!DOCTYPE svg PUBLIC "-//W3C//DTD SVG 1.1//EN" "http://www.w3.org/Graphics/SVG/1.1/DTD/svg11.dtd">
<svg version="1.1" id="Layer_1" xmlns="http://www.w3.org/2000/svg" xmlns:xlink="http://www.w3.org/1999/xlink" x="0px" y="0px"
	 width="256px" height="256px" viewBox="0 0 256 256" enable-background="new 0 0 256 256" xml:space="preserve">
<g>
	<g>
		<rect fill="#FFFFFF" width="256" height="256"/>
	</g>
	<g>
		<g>
			<defs>
				<circle id="SVGID_1_" cx="128.105" cy="116.437" r="70.946"/>
			</defs>
			<linearGradient id="SVGID_2_" gradientUnits="userSpaceOnUse" x1="57.1587" y1="116.4365" x2="199.0513" y2="116.4365">
				<stop  offset="0.2742" style="stop-color:#FFFFFF"/>
				<stop  offset="1" style="stop-color:#E1E2E3"/>
			</linearGradient>
			<use xlink:href="#SVGID_1_"  overflow="visible" fill="url(#SVGID_2_)"/>
			<clipPath id="SVGID_3_">
				<use xlink:href="#SVGID_1_"  overflow="visible"/>
			</clipPath>
			<g clip-path="url(#SVGID_3_)">
				<linearGradient id="SVGID_4_" gradientUnits="userSpaceOnUse" x1="106.2363" y1="-12.5781" x2="149.7637" y2="-12.5781">
					<stop  offset="0.2742" style="stop-color:#FFFFFF"/>
					<stop  offset="1" style="stop-color:#E8E8E9"/>
				</linearGradient>
				<polygon fill="url(#SVGID_4_)" points="128,-34.341 149.764,-12.579 128,9.185 106.236,-12.579 				"/>
				<linearGradient id="SVGID_5_" gradientUnits="userSpaceOnUse" x1="128" y1="9.1846" x2="171.5264" y2="9.1846">
					<stop  offset="0.2742" style="stop-color:#FFFFFF"/>
					<stop  offset="1" style="stop-color:#E8E8E9"/>
				</linearGradient>
				<polygon fill="url(#SVGID_5_)" points="149.764,-12.579 171.526,9.185 149.763,30.947 128,9.185 				"/>
				<linearGradient id="SVGID_6_" gradientUnits="userSpaceOnUse" x1="149.7627" y1="30.9482" x2="193.2886" y2="30.9482">
					<stop  offset="0.2742" style="stop-color:#FFFFFF"/>
					<stop  offset="1" style="stop-color:#E8E8E9"/>
				</linearGradient>
				<polygon fill="url(#SVGID_6_)" points="171.526,9.185 193.289,30.947 171.526,52.711 149.763,30.947 				"/>
				<linearGradient id="SVGID_7_" gradientUnits="userSpaceOnUse" x1="171.5264" y1="52.7104" x2="215.0527" y2="52.7104">
					<stop  offset="0.2742" style="stop-color:#FFFFFF"/>
					<stop  offset="1" style="stop-color:#E8E8E9"/>
				</linearGradient>
				<polygon fill="url(#SVGID_7_)" points="193.289,30.947 215.053,52.71 193.289,74.474 171.526,52.711 				"/>
				<linearGradient id="SVGID_8_" gradientUnits="userSpaceOnUse" x1="193.2886" y1="74.4736" x2="236.8149" y2="74.4736">
					<stop  offset="0.2742" style="stop-color:#FFFFFF"/>
					<stop  offset="1" style="stop-color:#E8E8E9"/>
				</linearGradient>
				<polygon fill="url(#SVGID_8_)" points="215.053,52.71 236.815,74.474 215.053,96.237 193.289,74.474 				"/>
				<linearGradient id="SVGID_9_" gradientUnits="userSpaceOnUse" x1="215.0527" y1="96.2368" x2="258.5786" y2="96.2368">
					<stop  offset="0.2742" style="stop-color:#FFFFFF"/>
					<stop  offset="1" style="stop-color:#E8E8E9"/>
				</linearGradient>
				<polygon fill="url(#SVGID_9_)" points="236.815,74.474 258.579,96.237 236.815,118 215.053,96.237 				"/>
				<linearGradient id="SVGID_10_" gradientUnits="userSpaceOnUse" x1="236.8149" y1="118.001" x2="280.3408" y2="118.001">
					<stop  offset="0.2742" style="stop-color:#FFFFFF"/>
					<stop  offset="1" style="stop-color:#E8E8E9"/>
				</linearGradient>
				<polygon fill="url(#SVGID_10_)" points="258.579,96.237 280.341,118 258.579,139.765 236.815,118 				"/>
				<linearGradient id="SVGID_11_" gradientUnits="userSpaceOnUse" x1="84.4736" y1="9.1846" x2="128" y2="9.1846">
					<stop  offset="0.2742" style="stop-color:#FFFFFF"/>
					<stop  offset="1" style="stop-color:#E8E8E9"/>
				</linearGradient>
				<polygon fill="url(#SVGID_11_)" points="106.236,-12.579 128,9.185 106.236,30.947 84.474,9.185 				"/>
				<linearGradient id="SVGID_12_" gradientUnits="userSpaceOnUse" x1="106.2363" y1="30.9473" x2="149.7627" y2="30.9473">
					<stop  offset="0.2742" style="stop-color:#FFFFFF"/>
					<stop  offset="1" style="stop-color:#E8E8E9"/>
				</linearGradient>
				<polygon fill="url(#SVGID_12_)" points="128,9.185 149.763,30.947 128,52.71 106.236,30.947 				"/>
				<linearGradient id="SVGID_13_" gradientUnits="userSpaceOnUse" x1="128" y1="52.7104" x2="171.5264" y2="52.7104">
					<stop  offset="0.2742" style="stop-color:#FFFFFF"/>
					<stop  offset="1" style="stop-color:#E8E8E9"/>
				</linearGradient>
				<polygon fill="url(#SVGID_13_)" points="149.763,30.947 171.526,52.711 149.764,74.474 128,52.71 				"/>
				<linearGradient id="SVGID_14_" gradientUnits="userSpaceOnUse" x1="149.7637" y1="74.4741" x2="193.2886" y2="74.4741">
					<stop  offset="0.2742" style="stop-color:#FFFFFF"/>
					<stop  offset="1" style="stop-color:#E8E8E9"/>
				</linearGradient>
				<polygon fill="url(#SVGID_14_)" points="171.526,52.711 193.289,74.474 171.526,96.237 149.764,74.474 				"/>
				<linearGradient id="SVGID_15_" gradientUnits="userSpaceOnUse" x1="171.5264" y1="96.2368" x2="215.0527" y2="96.2368">
					<stop  offset="0.2742" style="stop-color:#FFFFFF"/>
					<stop  offset="1" style="stop-color:#E8E8E9"/>
				</linearGradient>
				<polygon fill="url(#SVGID_15_)" points="193.289,74.474 215.053,96.237 193.289,118 171.526,96.237 				"/>
				<linearGradient id="SVGID_16_" gradientUnits="userSpaceOnUse" x1="193.2886" y1="118.001" x2="236.8149" y2="118.001">
					<stop  offset="0.2742" style="stop-color:#FFFFFF"/>
					<stop  offset="1" style="stop-color:#E8E8E9"/>
				</linearGradient>
				<polygon fill="url(#SVGID_16_)" points="215.053,96.237 236.815,118 215.053,139.765 193.289,118 				"/>
				<linearGradient id="SVGID_17_" gradientUnits="userSpaceOnUse" x1="215.0527" y1="139.7627" x2="258.5786" y2="139.7627">
					<stop  offset="0.2742" style="stop-color:#FFFFFF"/>
					<stop  offset="1" style="stop-color:#E8E8E9"/>
				</linearGradient>
				<polygon fill="url(#SVGID_17_)" points="236.815,118 258.579,139.765 236.815,161.525 215.053,139.765 				"/>
				<linearGradient id="SVGID_18_" gradientUnits="userSpaceOnUse" x1="62.71" y1="30.9473" x2="106.2363" y2="30.9473">
					<stop  offset="0.2742" style="stop-color:#FFFFFF"/>
					<stop  offset="1" style="stop-color:#E8E8E9"/>
				</linearGradient>
				<polygon fill="url(#SVGID_18_)" points="84.474,9.185 106.236,30.947 84.474,52.71 62.71,30.947 				"/>
				<linearGradient id="SVGID_19_" gradientUnits="userSpaceOnUse" x1="84.4736" y1="52.7104" x2="128" y2="52.7104">
					<stop  offset="0.2742" style="stop-color:#FFFFFF"/>
					<stop  offset="1" style="stop-color:#E8E8E9"/>
				</linearGradient>
				<polygon fill="url(#SVGID_19_)" points="106.236,30.947 128,52.71 106.236,74.474 84.474,52.71 				"/>
				<linearGradient id="SVGID_20_" gradientUnits="userSpaceOnUse" x1="106.2363" y1="74.4736" x2="149.7637" y2="74.4736">
					<stop  offset="0.2742" style="stop-color:#FFFFFF"/>
					<stop  offset="1" style="stop-color:#E8E8E9"/>
				</linearGradient>
				<polygon fill="url(#SVGID_20_)" points="128,52.71 149.764,74.474 128,96.237 106.236,74.474 				"/>
				<linearGradient id="SVGID_21_" gradientUnits="userSpaceOnUse" x1="128" y1="96.2368" x2="171.5264" y2="96.2368">
					<stop  offset="0.2742" style="stop-color:#FFFFFF"/>
					<stop  offset="1" style="stop-color:#E8E8E9"/>
				</linearGradient>
				<polygon fill="url(#SVGID_21_)" points="149.764,74.474 171.526,96.237 149.764,118 128,96.237 				"/>
				<linearGradient id="SVGID_22_" gradientUnits="userSpaceOnUse" x1="149.7637" y1="118.001" x2="193.2886" y2="118.001">
					<stop  offset="0.2742" style="stop-color:#FFFFFF"/>
					<stop  offset="1" style="stop-color:#E8E8E9"/>
				</linearGradient>
				<polygon fill="url(#SVGID_22_)" points="171.526,96.237 193.289,118 171.526,139.765 149.764,118 				"/>
				<linearGradient id="SVGID_23_" gradientUnits="userSpaceOnUse" x1="171.5264" y1="139.7627" x2="215.0527" y2="139.7627">
					<stop  offset="0.2742" style="stop-color:#FFFFFF"/>
					<stop  offset="1" style="stop-color:#E8E8E9"/>
				</linearGradient>
				<polygon fill="url(#SVGID_23_)" points="193.289,118 215.053,139.765 193.289,161.525 171.526,139.765 				"/>
				<linearGradient id="SVGID_24_" gradientUnits="userSpaceOnUse" x1="193.2886" y1="161.5273" x2="236.8149" y2="161.5273">
					<stop  offset="0.2742" style="stop-color:#FFFFFF"/>
					<stop  offset="1" style="stop-color:#E8E8E9"/>
				</linearGradient>
				<polygon fill="url(#SVGID_24_)" points="215.053,139.765 236.815,161.525 215.053,183.29 193.289,161.525 				"/>
				<linearGradient id="SVGID_25_" gradientUnits="userSpaceOnUse" x1="40.9473" y1="52.7104" x2="84.4736" y2="52.7104">
					<stop  offset="0.2742" style="stop-color:#FFFFFF"/>
					<stop  offset="1" style="stop-color:#E8E8E9"/>
				</linearGradient>
				<polygon fill="url(#SVGID_25_)" points="62.71,30.947 84.474,52.71 62.71,74.474 40.947,52.71 				"/>
				<linearGradient id="SVGID_26_" gradientUnits="userSpaceOnUse" x1="62.71" y1="74.4736" x2="106.2363" y2="74.4736">
					<stop  offset="0.2742" style="stop-color:#FFFFFF"/>
					<stop  offset="1" style="stop-color:#E8E8E9"/>
				</linearGradient>
				<polygon fill="url(#SVGID_26_)" points="84.474,52.71 106.236,74.474 84.474,96.237 62.71,74.474 				"/>
				<linearGradient id="SVGID_27_" gradientUnits="userSpaceOnUse" x1="84.4736" y1="96.2368" x2="128" y2="96.2368">
					<stop  offset="0.2742" style="stop-color:#FFFFFF"/>
					<stop  offset="1" style="stop-color:#E8E8E9"/>
				</linearGradient>
				<polygon fill="url(#SVGID_27_)" points="106.236,74.474 128,96.237 106.236,118 84.474,96.237 				"/>
				<linearGradient id="SVGID_28_" gradientUnits="userSpaceOnUse" x1="106.2363" y1="118.001" x2="149.7637" y2="118.001">
					<stop  offset="0.2742" style="stop-color:#FFFFFF"/>
					<stop  offset="1" style="stop-color:#E8E8E9"/>
				</linearGradient>
				<polygon fill="url(#SVGID_28_)" points="128,96.237 149.764,118 128,139.765 106.236,118 				"/>
				<linearGradient id="SVGID_29_" gradientUnits="userSpaceOnUse" x1="128" y1="139.7627" x2="171.5264" y2="139.7627">
					<stop  offset="0.2742" style="stop-color:#FFFFFF"/>
					<stop  offset="1" style="stop-color:#E8E8E9"/>
				</linearGradient>
				<polygon fill="url(#SVGID_29_)" points="149.764,118 171.526,139.765 149.764,161.525 128,139.765 				"/>
				<linearGradient id="SVGID_30_" gradientUnits="userSpaceOnUse" x1="149.7637" y1="161.5273" x2="193.2886" y2="161.5273">
					<stop  offset="0.2742" style="stop-color:#FFFFFF"/>
					<stop  offset="1" style="stop-color:#E8E8E9"/>
				</linearGradient>
				<polygon fill="url(#SVGID_30_)" points="171.526,139.765 193.289,161.525 171.526,183.29 149.764,161.525 				"/>
				<linearGradient id="SVGID_31_" gradientUnits="userSpaceOnUse" x1="171.5264" y1="183.2891" x2="215.0527" y2="183.2891">
					<stop  offset="0.2742" style="stop-color:#FFFFFF"/>
					<stop  offset="1" style="stop-color:#E8E8E9"/>
				</linearGradient>
				<polygon fill="url(#SVGID_31_)" points="193.289,161.525 215.053,183.29 193.289,205.053 171.526,183.29 				"/>
				<linearGradient id="SVGID_32_" gradientUnits="userSpaceOnUse" x1="19.1836" y1="74.4736" x2="62.71" y2="74.4736">
					<stop  offset="0.2742" style="stop-color:#FFFFFF"/>
					<stop  offset="1" style="stop-color:#E8E8E9"/>
				</linearGradient>
				<polygon fill="url(#SVGID_32_)" points="40.947,52.71 62.71,74.474 40.947,96.237 19.184,74.474 				"/>
				<linearGradient id="SVGID_33_" gradientUnits="userSpaceOnUse" x1="40.9473" y1="96.2368" x2="84.4736" y2="96.2368">
					<stop  offset="0.2742" style="stop-color:#FFFFFF"/>
					<stop  offset="1" style="stop-color:#E8E8E9"/>
				</linearGradient>
				<polygon fill="url(#SVGID_33_)" points="62.71,74.474 84.474,96.237 62.71,118 40.947,96.237 				"/>
				<linearGradient id="SVGID_34_" gradientUnits="userSpaceOnUse" x1="62.71" y1="118.001" x2="106.2363" y2="118.001">
					<stop  offset="0.2742" style="stop-color:#FFFFFF"/>
					<stop  offset="1" style="stop-color:#E8E8E9"/>
				</linearGradient>
				<polygon fill="url(#SVGID_34_)" points="84.474,96.237 106.236,118 84.474,139.765 62.71,118 				"/>
				<linearGradient id="SVGID_35_" gradientUnits="userSpaceOnUse" x1="84.4736" y1="139.7627" x2="128" y2="139.7627">
					<stop  offset="0.2742" style="stop-color:#FFFFFF"/>
					<stop  offset="1" style="stop-color:#E8E8E9"/>
				</linearGradient>
				<polygon fill="url(#SVGID_35_)" points="106.236,118 128,139.765 106.236,161.525 84.474,139.765 				"/>
				<linearGradient id="SVGID_36_" gradientUnits="userSpaceOnUse" x1="106.2363" y1="161.5273" x2="149.7637" y2="161.5273">
					<stop  offset="0.2742" style="stop-color:#FFFFFF"/>
					<stop  offset="1" style="stop-color:#E8E8E9"/>
				</linearGradient>
				<polygon fill="url(#SVGID_36_)" points="128,139.765 149.764,161.525 128,183.29 106.236,161.525 				"/>
				<linearGradient id="SVGID_37_" gradientUnits="userSpaceOnUse" x1="128" y1="183.2891" x2="171.5264" y2="183.2891">
					<stop  offset="0.2742" style="stop-color:#FFFFFF"/>
					<stop  offset="1" style="stop-color:#E8E8E9"/>
				</linearGradient>
				<polygon fill="url(#SVGID_37_)" points="149.764,161.525 171.526,183.29 149.764,205.053 128,183.29 				"/>
				<linearGradient id="SVGID_38_" gradientUnits="userSpaceOnUse" x1="149.7637" y1="205.0527" x2="193.2886" y2="205.0527">
					<stop  offset="0.2742" style="stop-color:#FFFFFF"/>
					<stop  offset="1" style="stop-color:#E8E8E9"/>
				</linearGradient>
				<polygon fill="url(#SVGID_38_)" points="171.526,183.29 193.289,205.053 171.526,226.815 149.764,205.053 				"/>
				<linearGradient id="SVGID_39_" gradientUnits="userSpaceOnUse" x1="-2.5786" y1="96.2368" x2="40.9473" y2="96.2368">
					<stop  offset="0.2742" style="stop-color:#FFFFFF"/>
					<stop  offset="1" style="stop-color:#E8E8E9"/>
				</linearGradient>
				<polygon fill="url(#SVGID_39_)" points="19.184,74.474 40.947,96.237 19.185,118 -2.579,96.237 				"/>
				<linearGradient id="SVGID_40_" gradientUnits="userSpaceOnUse" x1="19.1851" y1="118.001" x2="62.71" y2="118.001">
					<stop  offset="0.2742" style="stop-color:#FFFFFF"/>
					<stop  offset="1" style="stop-color:#E8E8E9"/>
				</linearGradient>
				<polygon fill="url(#SVGID_40_)" points="40.947,96.237 62.71,118 40.947,139.765 19.185,118 				"/>
				<linearGradient id="SVGID_41_" gradientUnits="userSpaceOnUse" x1="40.9473" y1="139.7627" x2="84.4736" y2="139.7627">
					<stop  offset="0.2742" style="stop-color:#FFFFFF"/>
					<stop  offset="1" style="stop-color:#E8E8E9"/>
				</linearGradient>
				<polygon fill="url(#SVGID_41_)" points="62.71,118 84.474,139.765 62.711,161.525 40.947,139.765 				"/>
				<linearGradient id="SVGID_42_" gradientUnits="userSpaceOnUse" x1="62.7114" y1="161.5273" x2="106.2363" y2="161.5273">
					<stop  offset="0.2742" style="stop-color:#FFFFFF"/>
					<stop  offset="1" style="stop-color:#E8E8E9"/>
				</linearGradient>
				<polygon fill="url(#SVGID_42_)" points="84.474,139.765 106.236,161.525 84.474,183.29 62.711,161.525 				"/>
				<linearGradient id="SVGID_43_" gradientUnits="userSpaceOnUse" x1="84.4736" y1="183.2891" x2="128" y2="183.2891">
					<stop  offset="0.2742" style="stop-color:#FFFFFF"/>
					<stop  offset="1" style="stop-color:#E8E8E9"/>
				</linearGradient>
				<polygon fill="url(#SVGID_43_)" points="106.236,161.525 128,183.29 106.236,205.053 84.474,183.29 				"/>
				<linearGradient id="SVGID_44_" gradientUnits="userSpaceOnUse" x1="106.2363" y1="205.0527" x2="149.7637" y2="205.0527">
					<stop  offset="0.2742" style="stop-color:#FFFFFF"/>
					<stop  offset="1" style="stop-color:#E8E8E9"/>
				</linearGradient>
				<polygon fill="url(#SVGID_44_)" points="128,183.29 149.764,205.053 128,226.815 106.236,205.053 				"/>
				<linearGradient id="SVGID_45_" gradientUnits="userSpaceOnUse" x1="128" y1="226.8164" x2="171.5264" y2="226.8164">
					<stop  offset="0.2742" style="stop-color:#FFFFFF"/>
					<stop  offset="1" style="stop-color:#E8E8E9"/>
				</linearGradient>
				<polygon fill="url(#SVGID_45_)" points="149.764,205.053 171.526,226.815 149.764,248.58 128,226.815 				"/>
				<linearGradient id="SVGID_46_" gradientUnits="userSpaceOnUse" x1="-24.3413" y1="118.001" x2="19.1851" y2="118.001">
					<stop  offset="0.2742" style="stop-color:#FFFFFF"/>
					<stop  offset="1" style="stop-color:#E8E8E9"/>
				</linearGradient>
				<polygon fill="url(#SVGID_46_)" points="-2.579,96.237 19.185,118 -2.579,139.765 -24.341,118 				"/>
				<linearGradient id="SVGID_47_" gradientUnits="userSpaceOnUse" x1="-2.5786" y1="139.7627" x2="40.9473" y2="139.7627">
					<stop  offset="0.2742" style="stop-color:#FFFFFF"/>
					<stop  offset="1" style="stop-color:#E8E8E9"/>
				</linearGradient>
				<polygon fill="url(#SVGID_47_)" points="19.185,118 40.947,139.765 19.185,161.525 -2.579,139.765 				"/>
				<linearGradient id="SVGID_48_" gradientUnits="userSpaceOnUse" x1="19.1851" y1="161.5273" x2="62.7114" y2="161.5273">
					<stop  offset="0.2742" style="stop-color:#FFFFFF"/>
					<stop  offset="1" style="stop-color:#E8E8E9"/>
				</linearGradient>
				<polygon fill="url(#SVGID_48_)" points="40.947,139.765 62.711,161.525 40.947,183.29 19.185,161.525 				"/>
				<linearGradient id="SVGID_49_" gradientUnits="userSpaceOnUse" x1="40.9473" y1="183.2891" x2="84.4736" y2="183.2891">
					<stop  offset="0.2742" style="stop-color:#FFFFFF"/>
					<stop  offset="1" style="stop-color:#E8E8E9"/>
				</linearGradient>
				<polygon fill="url(#SVGID_49_)" points="62.711,161.525 84.474,183.29 62.711,205.053 40.947,183.29 				"/>
				<linearGradient id="SVGID_50_" gradientUnits="userSpaceOnUse" x1="62.7114" y1="205.0527" x2="106.2363" y2="205.0527">
					<stop  offset="0.2742" style="stop-color:#FFFFFF"/>
					<stop  offset="1" style="stop-color:#E8E8E9"/>
				</linearGradient>
				<polygon fill="url(#SVGID_50_)" points="84.474,183.29 106.236,205.053 84.474,226.815 62.711,205.053 				"/>
				<linearGradient id="SVGID_51_" gradientUnits="userSpaceOnUse" x1="84.4736" y1="226.8164" x2="128" y2="226.8164">
					<stop  offset="0.2742" style="stop-color:#FFFFFF"/>
					<stop  offset="1" style="stop-color:#E8E8E9"/>
				</linearGradient>
				<polygon fill="url(#SVGID_51_)" points="106.236,205.053 128,226.815 106.236,248.58 84.474,226.815 				"/>
				<linearGradient id="SVGID_52_" gradientUnits="userSpaceOnUse" x1="106.2363" y1="248.5791" x2="149.7637" y2="248.5791">
					<stop  offset="0.2742" style="stop-color:#FFFFFF"/>
					<stop  offset="1" style="stop-color:#E8E8E9"/>
				</linearGradient>
				<polygon fill="url(#SVGID_52_)" points="128,226.815 149.764,248.58 128,270.343 106.236,248.58 				"/>
			</g>
		</g>
		<path fill="#E68125" d="M204.324,120.612c0.013-0.242,0.022-0.481,0.034-0.723c3.888-1.321,6.563-5.125,6.252-9.415
			c-0.304-4.29-3.489-7.685-7.527-8.438c-0.045-0.237-0.089-0.476-0.136-0.713c3.456-2.223,5.132-6.571,3.791-10.659
			c-1.336-4.094-5.251-6.612-9.356-6.36c-0.103-0.22-0.204-0.441-0.309-0.66c2.814-3,3.38-7.614,1.093-11.26
			c-0.006,0-0.006,0-0.006,0c-2.29-3.641-6.699-5.132-10.616-3.897c-0.152-0.188-0.302-0.379-0.455-0.564
			c2.004-3.584,1.444-8.199-1.657-11.181c0-0.005,0-0.005,0-0.005c-3.096-2.982-7.735-3.367-11.24-1.225
			c-0.194-0.146-0.386-0.295-0.58-0.44c1.083-3.962-0.579-8.313-4.302-10.46c-3.731-2.147-8.328-1.403-11.212,1.522
			c-0.225-0.096-0.45-0.192-0.676-0.286c0.091-4.11-2.578-7.926-6.718-9.103c-4.141-1.177-8.415,0.663-10.505,4.205
			c-0.239-0.038-0.478-0.079-0.718-0.115c-0.91-4.004-4.42-7.055-8.713-7.2c-4.3-0.14-8.004,2.676-9.174,6.612
			c-0.24,0.02-0.48,0.042-0.719,0.064c-1.844-3.675-5.989-5.799-10.195-4.9c0-0.006,0-0.006,0-0.006
			c-4.211,0.897-7.128,4.525-7.315,8.631c-0.23,0.079-0.458,0.161-0.688,0.242c-2.684-3.115-7.223-4.166-11.086-2.271
			c-3.862,1.891-5.81,6.117-4.992,10.147c-0.203,0.13-0.401,0.264-0.603,0.396c-3.354-2.373-8.008-2.295-11.301,0.475
			c-3.292,2.767-4.159,7.339-2.395,11.052c-0.167,0.177-0.332,0.354-0.495,0.532c-3.831-1.498-8.33-0.304-10.853,3.178
			c-2.533,3.483-2.274,8.131,0.333,11.308c-0.119,0.213-0.239,0.423-0.356,0.639c-4.079-0.526-8.155,1.72-9.764,5.717
			c-1.61,3.989-0.233,8.437,3.069,10.891c-0.064,0.236-0.13,0.474-0.192,0.712c-4.084,0.481-7.486,3.656-8.079,7.919
			c-0.589,4.257,1.826,8.235,5.622,9.813c-0.005,0.239-0.006,0.479-0.009,0.72c-3.847,1.448-6.39,5.344-5.945,9.619
			c0.448,4.28,3.749,7.565,7.809,8.18c0.054,0.24,0.108,0.476,0.164,0.71c-3.383,2.343-4.906,6.74-3.431,10.785
			c1.474,4.045,5.471,6.428,9.566,6.04c0.109,0.215,0.218,0.43,0.328,0.643c-2.711,3.085-3.12,7.723-0.71,11.287
			c2.409,3.561,6.864,4.908,10.739,3.543c0.156,0.183,0.317,0.362,0.476,0.543c-1.889,3.649-1.172,8.25,2.026,11.127
			c3.195,2.878,7.841,3.112,11.275,0.853c0.198,0.143,0.399,0.28,0.599,0.418c-0.952,3.997,0.853,8.29,4.653,10.31
			c-0.006,0-0.006,0-0.006,0c3.8,2.027,8.37,1.128,11.156-1.893c0.23,0.088,0.46,0.175,0.689,0.26
			c0.047,4.113,2.837,7.835,7.017,8.87c4.175,1.045,8.388-0.942,10.354-4.55c0.239,0.03,0.48,0.055,0.719,0.082
			c1.041,3.978,4.648,6.908,8.95,6.908c2.832,0,5.365-1.268,7.065-3.271c2.026,1.675,4.744,2.487,7.532,1.99
			c4.238-0.755,7.275-4.28,7.603-8.38c0.234-0.07,0.467-0.14,0.701-0.215c2.576,3.205,7.071,4.407,11,2.643
			c3.922-1.763,6.011-5.923,5.33-9.978c0.207-0.123,0.414-0.245,0.619-0.37c3.275,2.479,7.929,2.555,11.307-0.101
			c3.38-2.654,4.402-7.194,2.764-10.962c0.172-0.173,0.342-0.345,0.512-0.518c3.776,1.62,8.308,0.58,10.951-2.815
			c2.645-3.395,2.544-8.045,0.049-11.31c0.126-0.205,0.248-0.42,0.373-0.63c4.058,0.665,8.21-1.445,9.949-5.378
			c1.748-3.933,0.522-8.422-2.695-10.984c0.074-0.235,0.141-0.473,0.212-0.71c4.1-0.348,7.611-3.403,8.344-7.641
			C210.348,126.37,208.065,122.315,204.324,120.612z M128,183.51c-37.055,0-67.094-30.037-67.094-67.092
			c0-37.056,30.039-67.094,67.094-67.094s67.094,30.038,67.094,67.094C195.094,153.473,165.055,183.51,128,183.51z"/>
		<g>
			<g>
				<path fill="#FFFFFF" d="M165.393,113.885c0-2.327-1.376-4.34-3.359-5.269c1.586-1.041,2.636-2.835,2.636-4.87
					c0-2.724-1.851-5.022-4.424-5.652l0.038-0.166h-21.58c0.195-1.366,0.626-4.195,1.227-7.064
					c0.874-4.181,1.241-8.783-1.958-14.102c-1.839-3.073-4.125-3.718-5.719-3.718c-1.45,0-2.498,0.538-2.542,0.562l-0.458,0.238
					l0.059,0.513c0.325,2.799,1.106,10.469,0.838,12.335c-0.17,1.195-2.825,6.041-4.958,9.935c-1.902,3.473-3.7,6.753-4.313,8.365
					c-0.671,1.759-1.839,2.739-3.672,3.085l-0.61,0.115v27.187l0.38,0.215c2.949,1.667,7.105,2.853,7.281,2.902l0.1,0.027h27.499
					c3.21,0,5.821-2.612,5.821-5.82c0-1.183-0.355-2.313-1.004-3.262c3.038-0.193,5.449-2.726,5.449-5.811
					c0-1.524-0.589-2.945-1.592-4.004C163.286,119.164,165.393,116.765,165.393,113.885z"/>
				<path fill="#132847" d="M168.019,113.885c0-2.121-0.782-4.061-2.068-5.541c0.855-1.327,1.354-2.906,1.354-4.598
					c0-4.203-3.018-7.7-7.107-8.346c-0.277-0.076-0.56-0.114-0.851-0.114h-0.498h-2.215h-14.85c0.2-1.181,0.445-2.522,0.727-3.875
					c0.937-4.479,1.398-9.886-2.269-16.013c-2.615-4.342-6.13-4.987-7.987-4.996c-2.013,0-3.482,0.715-3.756,0.862
					c-1.248,0.651-1.962,1.998-1.797,3.389c0.525,4.6,0.987,10.272,0.851,11.592c-0.37,1.263-3.051,6.157-4.663,9.102
					c-2.034,3.716-3.793,6.922-4.471,8.704c-0.271,0.714-0.616,1.025-1.069,1.218v-3.395H92.502v39.476h24.846v-2.612
					c2.908,1.353,6.034,2.25,6.191,2.295c0.3,0.088,0.609,0.128,0.924,0.128h25.168h2.093h0.134c4.659,0,8.458-3.795,8.458-8.458
					c0-0.529-0.048-1.042-0.143-1.552c2.724-1.405,4.583-4.25,4.583-7.521c0-0.95-0.155-1.88-0.45-2.745
					C166.544,119.365,168.019,116.794,168.019,113.885z M159.562,118.957h-1.294c1.826,0.765,3.107,2.573,3.107,4.673
					c0,2.805-2.274,5.072-5.072,5.072h-1.34c1.193,0.928,1.968,2.378,1.968,4c0,2.803-2.271,5.07-5.071,5.07h-0.134h-2.093h-25.168
					c0,0-4.211-1.19-7.115-2.832v-26.128c1.659-0.313,3.325-1.175,4.232-3.554c1.356-3.558,8.977-16.086,9.314-18.461
					c0.34-2.372-0.836-12.528-0.836-12.528s0.913-0.476,2.195-0.476c1.476,0,3.446,0.631,5.075,3.354
					c3.053,5.075,2.711,9.525,1.868,13.563c-0.846,4.048-1.354,7.967-1.354,7.967h18.79h2.215h0.498l-0.005,0.021
					c2.569,0.251,4.58,2.407,4.58,5.047c0,2.797-2.275,5.07-5.072,5.07h0.714c2.802,0,5.081,2.268,5.081,5.068
					C164.643,116.688,162.364,118.957,159.562,118.957z"/>
			</g>
		</g>
		<g>
			<linearGradient id="SVGID_53_" gradientUnits="userSpaceOnUse" x1="36.9453" y1="192.2295" x2="14.8884" y2="192.2295">
				<stop  offset="0" style="stop-color:#132829"/>
				<stop  offset="1" style="stop-color:#132847"/>
			</linearGradient>
			<polygon fill="url(#SVGID_53_)" points="5.203,212.56 16.969,192.23 5.203,171.9 64.893,171.9 64.893,212.56 			"/>
			<path fill="#E68125" d="M61.893,174.9v34.659H10.405l8.292-14.322l1.739-3.007l-1.739-3.006L10.405,174.9H61.893 M67.893,168.9H0
				l13.502,23.33L0,215.56h67.893V168.9L67.893,168.9z"/>
		</g>
		<g>
			<linearGradient id="SVGID_54_" gradientUnits="userSpaceOnUse" x1="217.0913" y1="192.2305" x2="240.8393" y2="192.2305">
				<stop  offset="0" style="stop-color:#132829"/>
				<stop  offset="1" style="stop-color:#132847"/>
			</linearGradient>
			<polygon fill="url(#SVGID_54_)" points="191.107,212.56 191.107,171.9 250.797,171.9 239.03,192.23 250.797,212.56 			"/>
			<path fill="#E68125" d="M245.595,174.9l-8.291,14.324l-1.74,3.006l1.74,3.007l8.291,14.322h-51.487V174.9H245.595 M256,168.9
				h-67.893v46.659H256l-13.504-23.329L256,168.9L256,168.9z"/>
		</g>
		<g>
			<defs>
				<rect id="SVGID_55_" x="22.212" y="162.095" width="26.86" height="60.275"/>
			</defs>
			<clipPath id="SVGID_56_">
				<use xlink:href="#SVGID_55_"  overflow="visible"/>
			</clipPath>
		</g>
		<g>
			<defs>
				<rect id="SVGID_57_" x="205.529" y="162.095" width="26.86" height="60.275"/>
			</defs>
			<clipPath id="SVGID_58_">
				<use xlink:href="#SVGID_57_"  overflow="visible"/>
			</clipPath>
		</g>
		<rect x="32.482" y="162.64" fill="#132847" width="191.024" height="59.186"/>
		<rect x="32.482" y="162.095" fill="#E68125" width="191.024" height="6.535"/>
		<rect x="32.482" y="215.832" fill="#E68125" width="191.024" height="6.538"/>
		<g>
			<g>
				<path fill="#09A869" d="M185.159,175.147c-2.972,0-5.782-1.31-7.7-3.548c-0.289,0.025-0.579,0.035-0.869,0.035
					c-2.681,0-5.206-1.032-7.11-2.91c-2.121-2.085-3.208-4.987-3.005-7.925c-2.271-1.877-3.626-4.665-3.674-7.645
					c-0.046-2.971,1.217-5.8,3.421-7.755c-0.3-2.933,0.69-5.873,2.74-8.025c1.933-2.03,4.539-3.145,7.34-3.145
					c0.179,0,0.357,0.002,0.535,0.012c1.844-2.3,4.61-3.702,7.583-3.802c0.114-0.006,0.225-0.006,0.336-0.006
					c2.839,0,5.563,1.218,7.472,3.301c0.404-0.051,0.809-0.075,1.214-0.075c2.544,0,4.979,0.95,6.856,2.678
					c2.188,2.015,3.37,4.882,3.264,7.824c2.333,1.803,3.779,4.548,3.924,7.522c0.148,2.968-1.02,5.841-3.161,7.863
					c0.397,2.915-0.493,5.885-2.472,8.109c-1.922,2.158-4.682,3.393-7.575,3.393c0,0-0.129,0-0.194,0
					c-1.763,2.36-4.482,3.853-7.458,4.05c-0.208,0.013-0.413,0.021-0.616,0.021l-0.11-0.003
					C185.656,175.138,185.413,175.147,185.159,175.147z"/>
				<path fill="#FFFFFF" d="M184.756,132.06c2.779,0,5.264,1.343,6.821,3.433c0.614-0.137,1.239-0.207,1.865-0.207
					c2.058,0,4.123,0.745,5.756,2.25c2.131,1.96,3.033,4.758,2.667,7.425c2.287,1.425,3.857,3.91,3.999,6.803
					c0.145,2.893-1.176,5.518-3.308,7.16c0.63,2.617,0.01,5.487-1.916,7.654c-1.683,1.888-4.018,2.848-6.361,2.848
					c-0.34,0-0.68-0.02-1.019-0.06c-1.386,2.31-3.847,3.92-6.74,4.109c-0.171,0.013-0.341,0.021-0.509,0.021
					c-0.058,0-0.115,0-0.171-0.005c-0.225,0.022-0.45,0.032-0.681,0.032c-2.895,0-5.453-1.452-6.989-3.657
					c-0.522,0.098-1.051,0.145-1.58,0.145c-2.156,0-4.315-0.81-5.969-2.442c-2.067-2.032-2.877-4.853-2.422-7.508
					c-2.236-1.497-3.728-4.034-3.772-6.93c-0.045-2.899,1.361-5.475,3.542-7.05c-0.54-2.635,0.175-5.49,2.171-7.585
					c1.672-1.755,3.917-2.643,6.163-2.64c0.435,0,0.871,0.029,1.302,0.1c1.466-2.263,3.973-3.795,6.869-3.89
					C184.569,132.06,184.663,132.06,184.756,132.06 M184.756,128.81h-0.001c-0.128,0-0.257,0.003-0.386,0.006
					c-3.174,0.107-6.145,1.492-8.264,3.79c-3.134,0.055-6.156,1.375-8.319,3.649c-2.19,2.298-3.336,5.367-3.235,8.492
					c-2.188,2.23-3.424,5.263-3.375,8.433c0.05,3.181,1.385,6.176,3.65,8.328c0.002,3.125,1.251,6.152,3.518,8.377
					c2.205,2.175,5.135,3.375,8.246,3.375c0.064,0,0.126,0,0.189,0c2.195,2.226,5.208,3.513,8.38,3.513c0.27,0,0.53-0.01,0.79-0.027
					c0.021,0,0.042,0,0.063,0c0.235,0,0.479-0.01,0.723-0.025c3.175-0.21,6.1-1.689,8.14-4.06c3.136-0.16,6.095-1.567,8.192-3.92
					c2.112-2.375,3.155-5.48,2.951-8.596c2.116-2.3,3.25-5.375,3.092-8.545c-0.155-3.17-1.587-6.119-3.922-8.199
					c-0.106-3.12-1.453-6.107-3.788-8.258c-2.18-2.003-5.005-3.107-7.958-3.107c-0.197,0-0.394,0.005-0.591,0.015
					C190.683,129.995,187.775,128.81,184.756,128.81L184.756,128.81z"/>
			</g>
			<g>
				<path fill="#FFFFFF" d="M182.234,161.11c-0.361,0-0.723-0.128-1.01-0.391l-7.659-6.96c-0.612-0.56-0.657-1.507-0.1-2.12
					c0.558-0.614,1.506-0.659,2.12-0.1l6.594,5.992l12.495-12.622c0.581-0.59,1.534-0.595,2.123-0.01
					c0.588,0.58,0.594,1.532,0.01,2.119L183.3,160.668C183.007,160.963,182.62,161.11,182.234,161.11z"/>
			</g>
		</g>
		<g>
			<g>
				<g>
					<path fill="#FFFFFF" d="M81.145,186.895l2.314-8.46h3.128l-3.91,11.618h-3.064l-3.877-11.618h3.104L81.145,186.895z"/>
					<path fill="#FFFFFF" d="M96.271,185.122h-4.404v2.778h5.202v2.152h-8.003v-11.618h8.019v2.165h-5.217v2.448h4.404V185.122z"/>
					<path fill="#FFFFFF" d="M104.161,185.945h-1.516v4.107h-2.8v-11.618h4.571c1.378,0,2.455,0.306,3.231,0.918
						s1.165,1.475,1.165,2.59c0,0.808-0.164,1.478-0.491,2.008c-0.326,0.532-0.839,0.965-1.535,1.292l2.425,4.692v0.118h-3
						L104.161,185.945z M102.645,183.79h1.771c0.531,0,0.933-0.14,1.202-0.42c0.267-0.28,0.402-0.67,0.402-1.17
						c0-0.505-0.136-0.896-0.408-1.181c-0.271-0.284-0.67-0.43-1.196-0.43h-1.771V183.79z"/>
					<path fill="#FFFFFF" d="M115.123,190.053h-2.792v-11.618h2.792V190.053z"/>
					<path fill="#FFFFFF" d="M126.019,185.425h-4.515v4.628h-2.801v-11.618h7.771v2.165h-4.97v2.67h4.515V185.425z"/>
					<path fill="#FFFFFF" d="M132.257,190.053h-2.792v-11.618h2.792V190.053z"/>
					<path fill="#FFFFFF" d="M143.042,185.122h-4.404v2.778h5.203v2.152h-8.004v-11.618h8.019v2.165h-5.218v2.448h4.404V185.122z"/>
					<path fill="#FFFFFF" d="M146.615,190.053v-11.618h3.742c1.026,0,1.95,0.235,2.769,0.7c0.818,0.465,1.458,1.123,1.918,1.971
						c0.46,0.85,0.692,1.8,0.699,2.852v0.535c0,1.063-0.225,2.018-0.675,2.86c-0.45,0.843-1.083,1.503-1.899,1.978
						s-1.728,0.718-2.732,0.723H146.615z M149.416,180.6v7.301h0.973c0.804,0,1.421-0.285,1.852-0.86
						c0.431-0.57,0.646-1.42,0.646-2.548v-0.502c0-1.123-0.215-1.971-0.646-2.538c-0.43-0.569-1.058-0.853-1.883-0.853H149.416z"/>
					<path fill="#FFFFFF" d="M172.065,185.832c0,1.318-0.304,2.378-0.91,3.178c-0.606,0.803-1.42,1.203-2.441,1.203
						c-1.091,0-1.934-0.386-2.529-1.158l-0.073,0.998h-1.356v-12.255h1.476v4.572c0.595-0.74,1.417-1.11,2.465-1.11
						c1.048,0,1.872,0.397,2.47,1.19c0.598,0.792,0.897,1.877,0.897,3.255V185.832z M170.589,185.665
						c0-1.005-0.194-1.782-0.583-2.33s-0.946-0.822-1.676-0.822c-0.973,0-1.672,0.452-2.098,1.357v3.735
						c0.451,0.902,1.156,1.354,2.114,1.354c0.708,0,1.259-0.275,1.651-0.822C170.391,187.59,170.589,186.765,170.589,185.665z"/>
					<path fill="#FFFFFF" d="M176.66,187.89l2.011-6.47h1.579l-3.47,9.965c-0.538,1.436-1.392,2.155-2.562,2.155l-0.279-0.025
						l-0.551-0.103v-1.197l0.399,0.032c0.5,0,0.89-0.103,1.168-0.302c0.28-0.203,0.51-0.573,0.691-1.11l0.326-0.878l-3.08-8.537
						h1.613L176.66,187.89z"/>
				</g>
			</g>
			<g>
				<g>
					<g>
						<path fill="#FFFFFF" d="M94.259,206.715h-1.845v-7.12l-2.202,0.681v-1.485l3.849-1.38h0.199V206.715z"/>
						<path fill="#FFFFFF" d="M103.533,202.875c0,1.285-0.265,2.265-0.798,2.947c-0.532,0.681-1.311,1.022-2.336,1.022
							c-1.013,0-1.788-0.335-2.324-1.002c-0.537-0.668-0.81-1.628-0.823-2.873v-1.71c0-1.3,0.269-2.285,0.808-2.955
							c0.538-0.675,1.313-1.01,2.326-1.01s1.788,0.333,2.324,1c0.536,0.665,0.81,1.62,0.823,2.87V202.875z M101.689,200.995
							c0-0.775-0.106-1.335-0.316-1.686c-0.211-0.353-0.54-0.527-0.986-0.527c-0.434,0-0.754,0.168-0.961,0.503
							c-0.206,0.335-0.315,0.854-0.327,1.567v2.263c0,0.757,0.103,1.319,0.309,1.689c0.206,0.368,0.538,0.551,0.993,0.551
							c0.451,0,0.776-0.176,0.976-0.53c0.2-0.353,0.305-0.896,0.314-1.62V200.995z"/>
						<path fill="#FFFFFF" d="M109.795,204.277c0-0.362-0.127-0.638-0.384-0.832c-0.255-0.195-0.715-0.397-1.378-0.613
							c-0.664-0.215-1.189-0.427-1.577-0.635c-1.055-0.569-1.583-1.337-1.583-2.305c0-0.503,0.142-0.95,0.424-1.343
							c0.284-0.395,0.69-0.702,1.22-0.922c0.53-0.223,1.124-0.333,1.784-0.333c0.664,0,1.255,0.12,1.774,0.36
							c0.52,0.239,0.922,0.58,1.21,1.02c0.287,0.438,0.431,0.936,0.431,1.493h-1.915c0-0.428-0.134-0.758-0.402-0.993
							c-0.268-0.234-0.645-0.354-1.13-0.354c-0.467,0-0.831,0.1-1.091,0.297c-0.26,0.198-0.389,0.458-0.389,0.783
							c0,0.3,0.151,0.555,0.457,0.76c0.304,0.205,0.751,0.395,1.344,0.575c1.089,0.324,1.882,0.732,2.38,1.217
							c0.499,0.485,0.748,1.091,0.748,1.813c0,0.806-0.305,1.436-0.913,1.893c-0.609,0.458-1.429,0.688-2.458,0.688
							c-0.715,0-1.366-0.132-1.954-0.395c-0.587-0.26-1.035-0.62-1.344-1.075s-0.462-0.982-0.462-1.582h1.921
							c0,1.027,0.613,1.537,1.839,1.537c0.455,0,0.81-0.09,1.065-0.275C109.667,204.87,109.795,204.61,109.795,204.277z"/>
						<path fill="#FFFFFF" d="M118.604,202.675h-3.677v2.503h4.315v1.537h-6.23v-9.292h6.217v1.552h-4.302v2.216h3.677V202.675z"/>
						<path fill="#FFFFFF" d="M127.999,202.28c0,0.915-0.162,1.717-0.485,2.404c-0.324,0.69-0.786,1.223-1.389,1.598
							c-0.601,0.373-1.292,0.563-2.071,0.563c-0.77,0-1.458-0.185-2.061-0.555c-0.604-0.372-1.073-0.9-1.404-1.588
							c-0.333-0.688-0.5-1.478-0.505-2.372v-0.46c0-0.915,0.165-1.72,0.495-2.415c0.33-0.695,0.796-1.23,1.397-1.6
							c0.603-0.375,1.292-0.561,2.065-0.561c0.775,0,1.463,0.186,2.065,0.561c0.603,0.369,1.068,0.904,1.398,1.6
							c0.329,0.695,0.494,1.5,0.494,2.41V202.28z M126.059,201.86c0-0.976-0.175-1.716-0.523-2.223
							c-0.349-0.508-0.846-0.76-1.494-0.76c-0.642,0-1.139,0.25-1.487,0.75s-0.525,1.232-0.529,2.199v0.453
							c0,0.95,0.174,1.685,0.522,2.21c0.349,0.52,0.852,0.785,1.506,0.785c0.643,0,1.136-0.256,1.481-0.758
							c0.345-0.505,0.519-1.237,0.523-2.208V201.86z"/>
						<path fill="#FFFFFF" d="M134.21,204.277c0-0.362-0.129-0.638-0.384-0.832c-0.255-0.195-0.715-0.397-1.379-0.613
							c-0.664-0.215-1.188-0.427-1.576-0.635c-1.055-0.569-1.583-1.337-1.583-2.305c0-0.503,0.143-0.95,0.425-1.343
							c0.283-0.395,0.69-0.702,1.22-0.922c0.529-0.223,1.124-0.333,1.784-0.333c0.664,0,1.255,0.12,1.774,0.36
							c0.52,0.239,0.922,0.58,1.21,1.02c0.287,0.438,0.431,0.936,0.431,1.493h-1.915c0-0.428-0.135-0.758-0.402-0.993
							c-0.268-0.234-0.645-0.354-1.13-0.354c-0.467,0-0.831,0.1-1.091,0.297c-0.26,0.198-0.39,0.458-0.39,0.783
							c0,0.3,0.152,0.555,0.458,0.76c0.304,0.205,0.751,0.395,1.344,0.575c1.089,0.324,1.882,0.732,2.38,1.217
							c0.499,0.485,0.748,1.091,0.748,1.813c0,0.806-0.305,1.436-0.914,1.893c-0.608,0.458-1.428,0.688-2.458,0.688
							c-0.713,0-1.365-0.132-1.952-0.395c-0.587-0.26-1.035-0.62-1.344-1.075s-0.462-0.982-0.462-1.582h1.921
							c0,1.027,0.613,1.537,1.837,1.537c0.457,0,0.812-0.09,1.066-0.275C134.081,204.87,134.21,204.61,134.21,204.277z"/>
						<path fill="#FFFFFF" d="M137.401,205.81c0-0.295,0.099-0.532,0.296-0.715c0.199-0.183,0.446-0.274,0.744-0.274
							c0.302,0,0.552,0.092,0.75,0.274c0.199,0.183,0.297,0.42,0.297,0.715c0,0.29-0.099,0.525-0.294,0.705
							c-0.196,0.181-0.447,0.271-0.753,0.271c-0.301,0-0.551-0.09-0.747-0.271C137.499,206.335,137.401,206.1,137.401,205.81z"/>
						<path fill="#FFFFFF" d="M148.52,203.62c-0.073,1-0.441,1.787-1.107,2.362c-0.667,0.572-1.544,0.862-2.632,0.862
							c-1.193,0-2.129-0.402-2.813-1.205c-0.683-0.8-1.024-1.902-1.024-3.302v-0.568c0-0.895,0.157-1.68,0.472-2.362
							c0.314-0.683,0.765-1.202,1.349-1.567c0.586-0.365,1.266-0.545,2.04-0.545c1.072,0,1.936,0.287,2.591,0.86
							c0.655,0.575,1.035,1.382,1.136,2.42h-1.914c-0.047-0.601-0.215-1.035-0.502-1.306c-0.286-0.27-0.724-0.404-1.311-0.404
							c-0.638,0-1.116,0.229-1.433,0.685c-0.317,0.46-0.48,1.168-0.489,2.13v0.703c0,1.002,0.152,1.737,0.456,2.202
							c0.305,0.463,0.785,0.695,1.44,0.695c0.591,0,1.032-0.136,1.323-0.405c0.292-0.27,0.459-0.69,0.501-1.255H148.52z"/>
						<path fill="#FFFFFF" d="M157.411,202.28c0,0.915-0.161,1.717-0.485,2.404c-0.324,0.69-0.786,1.223-1.389,1.598
							c-0.601,0.373-1.292,0.563-2.071,0.563c-0.77,0-1.458-0.185-2.061-0.555c-0.604-0.372-1.073-0.9-1.404-1.588
							c-0.333-0.688-0.5-1.478-0.505-2.372v-0.46c0-0.915,0.165-1.72,0.495-2.415s0.796-1.23,1.397-1.6
							c0.603-0.375,1.292-0.561,2.065-0.561c0.775,0,1.464,0.186,2.065,0.561c0.603,0.369,1.069,0.904,1.399,1.6
							c0.329,0.695,0.494,1.5,0.494,2.41V202.28z M155.471,201.86c0-0.976-0.175-1.716-0.524-2.223
							c-0.349-0.508-0.846-0.76-1.494-0.76c-0.642,0-1.137,0.25-1.487,0.75c-0.348,0.5-0.525,1.232-0.529,2.199v0.453
							c0,0.95,0.174,1.685,0.522,2.21c0.35,0.52,0.852,0.785,1.506,0.785c0.644,0,1.136-0.256,1.481-0.758
							c0.345-0.505,0.519-1.237,0.524-2.208V201.86z"/>
						<path fill="#FFFFFF" d="M161.306,197.423l2.386,6.742l2.375-6.742h2.515v9.292h-1.921v-2.54l0.191-4.385l-2.509,6.925h-1.315
							l-2.501-6.917l0.191,4.377v2.54h-1.915v-9.292H161.306z"/>
					</g>
				</g>
			</g>
		</g>
	</g>
</g>
<g>
	<g>
		<g>
			<defs>
				<circle id="SVGID_59_" cx="404.105" cy="116.437" r="70.945"/>
			</defs>
			<linearGradient id="SVGID_60_" gradientUnits="userSpaceOnUse" x1="333.1602" y1="116.4365" x2="475.0498" y2="116.4365">
				<stop  offset="0.2742" style="stop-color:#FFFFFF"/>
				<stop  offset="1" style="stop-color:#E1E2E3"/>
			</linearGradient>
			<use xlink:href="#SVGID_59_"  overflow="visible" fill="url(#SVGID_60_)"/>
			<clipPath id="SVGID_61_">
				<use xlink:href="#SVGID_59_"  overflow="visible"/>
			</clipPath>
			<g clip-path="url(#SVGID_61_)">
				<linearGradient id="SVGID_62_" gradientUnits="userSpaceOnUse" x1="251.6587" y1="118.001" x2="295.1855" y2="118.001">
					<stop  offset="0.2742" style="stop-color:#FFFFFF"/>
					<stop  offset="1" style="stop-color:#E8E8E9"/>
				</linearGradient>
				<polygon fill="url(#SVGID_62_)" points="273.42,96.237 295.186,118 273.42,139.765 251.659,118 				"/>
			</g>
		</g>
	</g>
</g>
</svg>
